HIERARCHY
ROOT Hips
{
  OFFSET 5.72205e-005 65.662 3.42586
  CHANNELS 6 Xposition Yposition Zposition Zrotation Xrotation Yrotation
  JOINT Chest
  {
    OFFSET 0 8.7983 -4.7612
    CHANNELS 6 Xposition Yposition Zposition Zrotation Xrotation Yrotation
    JOINT Chest2
    {
      OFFSET 0 8.0291 0.4195
      CHANNELS 6 Xposition Yposition Zposition Zrotation Xrotation Yrotation
      JOINT Chest3
      {
        OFFSET 0 9.9351 -2.2114
        CHANNELS 6 Xposition Yposition Zposition Zrotation Xrotation Yrotation
        JOINT Neck
        {
          OFFSET 0 22.3885 -0.4656
          CHANNELS 6 Xposition Yposition Zposition Zrotation Xrotation Yrotation
          JOINT Head
          {
            OFFSET -0.0001 12.643 3.4389
            CHANNELS 6 Xposition Yposition Zposition Zrotation Xrotation Yrotation
            End Site
            {
              OFFSET 0.0001 17.6655 0.5274
            }
          }
        }
        JOINT LeftCollar
        {
          OFFSET 2.2603 21.606 7.4023
          CHANNELS 6 Xposition Yposition Zposition Zrotation Xrotation Yrotation
          JOINT LeftShoulder
          {
            OFFSET 13.5163 -1.1332 -5.0146
            CHANNELS 6 Xposition Yposition Zposition Zrotation Xrotation Yrotation
            JOINT LeftElbow
            {
              OFFSET -0.0995 -28.05 -0.2431
              CHANNELS 6 Xposition Yposition Zposition Zrotation Xrotation Yrotation
              JOINT LeftWrist
              {
                OFFSET 0.0679 -23.3996 -0.1402
                CHANNELS 6 Xposition Yposition Zposition Zrotation Xrotation Yrotation
                JOINT LeftFinger1
                {
                  OFFSET 0.7932 -9.069 2.5189
                  CHANNELS 6 Xposition Yposition Zposition Zrotation Xrotation Yrotation
                  JOINT LeftFinger11
                  {
                    OFFSET -0.8272 -3.3923 0.5977
                    CHANNELS 6 Xposition Yposition Zposition Zrotation Xrotation Yrotation
                    JOINT LeftFinger12
                    {
                      OFFSET -0.5649 -2.3158 0.4082
                      CHANNELS 6 Xposition Yposition Zposition Zrotation Xrotation Yrotation
                      End Site
                      {
                        OFFSET -0.4919 -1.6479 0.2673
                      }
                    }
                  }
                }
                JOINT LeftFinger2
                {
                  OFFSET 0.9159 -9.2044 0.2193
                  CHANNELS 6 Xposition Yposition Zposition Zrotation Xrotation Yrotation
                  JOINT LeftFinger21
                  {
                    OFFSET 0.0117 -4.1944 -0.0248
                    CHANNELS 6 Xposition Yposition Zposition Zrotation Xrotation Yrotation
                    JOINT LeftFinger22
                    {
                      OFFSET 0.0071 -2.3249 -0.0142
                      CHANNELS 6 Xposition Yposition Zposition Zrotation Xrotation Yrotation
                      End Site
                      {
                        OFFSET -0.1475 -2.0882 0.0028
                      }
                    }
                  }
                }
                JOINT LeftFinger3
                {
                  OFFSET 0.6113 -8.7231 -2.0637
                  CHANNELS 6 Xposition Yposition Zposition Zrotation Xrotation Yrotation
                  JOINT LeftFinger31
                  {
                    OFFSET -0.1927 -3.8059 -0.2383
                    CHANNELS 6 Xposition Yposition Zposition Zrotation Xrotation Yrotation
                    JOINT LeftFinger32
                    {
                      OFFSET -0.1091 -2.1688 -0.1362
                      CHANNELS 6 Xposition Yposition Zposition Zrotation Xrotation Yrotation
                      End Site
                      {
                        OFFSET -0.2358 -1.9176 -0.0906
                      }
                    }
                  }
                }
                JOINT LeftFinger4
                {
                  OFFSET -0.6151 -8.0947 -3.5641
                  CHANNELS 6 Xposition Yposition Zposition Zrotation Xrotation Yrotation
                  JOINT LeftFinger41
                  {
                    OFFSET -0.4882 -2.341 -0.6462
                    CHANNELS 6 Xposition Yposition Zposition Zrotation Xrotation Yrotation
                    JOINT LeftFinger42
                    {
                      OFFSET -0.3575 -1.7167 -0.4742
                      CHANNELS 6 Xposition Yposition Zposition Zrotation Xrotation Yrotation
                      End Site
                      {
                        OFFSET -0.4187 -1.5237 -0.3496
                      }
                    }
                  }
                }
                JOINT LeftFinger0
                {
                  OFFSET -1.42 -1.8761 1.4223
                  CHANNELS 6 Xposition Yposition Zposition Zrotation Xrotation Yrotation
                  JOINT LeftFinger01
                  {
                    OFFSET -1.1471 -3.4929 2.6334
                    CHANNELS 6 Xposition Yposition Zposition Zrotation Xrotation Yrotation
                    JOINT LeftFinger02
                    {
                      OFFSET -0.823 -2.3 1.6571
                      CHANNELS 6 Xposition Yposition Zposition Zrotation Xrotation Yrotation
                      End Site
                      {
                        OFFSET -0.5822 -1.6914 1.1582
                      }
                    }
                  }
                }
              }
            }
          }
        }
        JOINT RightCollar
        {
          OFFSET -2.2603 21.606 7.4023
          CHANNELS 6 Xposition Yposition Zposition Zrotation Xrotation Yrotation
          JOINT RightShoulder
          {
            OFFSET -13.5187 -1.1334 -5.0155
            CHANNELS 6 Xposition Yposition Zposition Zrotation Xrotation Yrotation
            JOINT RightElbow
            {
              OFFSET 0.0994 -28.0499 -0.2431
              CHANNELS 6 Xposition Yposition Zposition Zrotation Xrotation Yrotation
              JOINT RightWrist
              {
                OFFSET -0.0679 -23.3996 -0.1402
                CHANNELS 6 Xposition Yposition Zposition Zrotation Xrotation Yrotation
                JOINT RightFinger1
                {
                  OFFSET -0.7932 -9.0691 2.5189
                  CHANNELS 6 Xposition Yposition Zposition Zrotation Xrotation Yrotation
                  JOINT RightFinger11
                  {
                    OFFSET 0.8272 -3.3923 0.5977
                    CHANNELS 6 Xposition Yposition Zposition Zrotation Xrotation Yrotation
                    JOINT RightFinger12
                    {
                      OFFSET 0.565 -2.3158 0.4082
                      CHANNELS 6 Xposition Yposition Zposition Zrotation Xrotation Yrotation
                      End Site
                      {
                        OFFSET 0.4919 -1.6479 0.2673
                      }
                    }
                  }
                }
                JOINT RightFinger2
                {
                  OFFSET -0.916 -9.2044 0.2193
                  CHANNELS 6 Xposition Yposition Zposition Zrotation Xrotation Yrotation
                  JOINT RightFinger21
                  {
                    OFFSET -0.0117 -4.1944 -0.0248
                    CHANNELS 6 Xposition Yposition Zposition Zrotation Xrotation Yrotation
                    JOINT RightFinger22
                    {
                      OFFSET -0.0071 -2.3249 -0.0142
                      CHANNELS 6 Xposition Yposition Zposition Zrotation Xrotation Yrotation
                      End Site
                      {
                        OFFSET 0.1475 -2.0882 0.0028
                      }
                    }
                  }
                }
                JOINT RightFinger3
                {
                  OFFSET -0.6113 -8.7231 -2.0637
                  CHANNELS 6 Xposition Yposition Zposition Zrotation Xrotation Yrotation
                  JOINT RightFinger31
                  {
                    OFFSET 0.1927 -3.8059 -0.2383
                    CHANNELS 6 Xposition Yposition Zposition Zrotation Xrotation Yrotation
                    JOINT RightFinger32
                    {
                      OFFSET 0.1091 -2.1688 -0.1362
                      CHANNELS 6 Xposition Yposition Zposition Zrotation Xrotation Yrotation
                      End Site
                      {
                        OFFSET 0.2358 -1.9176 -0.0906
                      }
                    }
                  }
                }
                JOINT RightFinger4
                {
                  OFFSET 0.6151 -8.0947 -3.564
                  CHANNELS 6 Xposition Yposition Zposition Zrotation Xrotation Yrotation
                  JOINT RightFinger41
                  {
                    OFFSET 0.4882 -2.341 -0.6462
                    CHANNELS 6 Xposition Yposition Zposition Zrotation Xrotation Yrotation
                    JOINT RightFinger42
                    {
                      OFFSET 0.3574 -1.7166 -0.4742
                      CHANNELS 6 Xposition Yposition Zposition Zrotation Xrotation Yrotation
                      End Site
                      {
                        OFFSET 0.4187 -1.5237 -0.3496
                      }
                    }
                  }
                }
                JOINT RightFinger0
                {
                  OFFSET 1.4199 -1.8761 1.4221
                  CHANNELS 6 Xposition Yposition Zposition Zrotation Xrotation Yrotation
                  JOINT RightFinger01
                  {
                    OFFSET 1.1472 -3.4929 2.6336
                    CHANNELS 6 Xposition Yposition Zposition Zrotation Xrotation Yrotation
                    JOINT RightFinger02
                    {
                      OFFSET 0.8229 -2.3 1.6571
                      CHANNELS 6 Xposition Yposition Zposition Zrotation Xrotation Yrotation
                      End Site
                      {
                        OFFSET 0.5822 -1.6914 1.1582
                      }
                    }
                  }
                }
              }
            }
          }
        }
      }
    }
  }
  JOINT RightHip
  {
    OFFSET -9.412 3.9771 -0.7758
    CHANNELS 6 Xposition Yposition Zposition Zrotation Xrotation Yrotation
    JOINT RightKnee
    {
      OFFSET -0.7531 -40.938 0
      CHANNELS 6 Xposition Yposition Zposition Zrotation Xrotation Yrotation
      JOINT RightAnkle
      {
        OFFSET 0 -40.1986 0
        CHANNELS 6 Xposition Yposition Zposition Zrotation Xrotation Yrotation
        JOINT RightToe
        {
          OFFSET 0 -4.4182 9.239
          CHANNELS 6 Xposition Yposition Zposition Zrotation Xrotation Yrotation
          End Site
          {
            OFFSET 0 0 6.1981
          }
        }
      }
    }
  }
  JOINT LeftHip
  {
    OFFSET 9.4119 3.9773 -0.7758
    CHANNELS 6 Xposition Yposition Zposition Zrotation Xrotation Yrotation
    JOINT LeftKnee
    {
      OFFSET 0.7532 -40.9383 0
      CHANNELS 6 Xposition Yposition Zposition Zrotation Xrotation Yrotation
      JOINT LeftAnkle
      {
        OFFSET 0 -40.1986 0
        CHANNELS 6 Xposition Yposition Zposition Zrotation Xrotation Yrotation
        JOINT LeftToe
        {
          OFFSET 0 -4.4182 9.239
          CHANNELS 6 Xposition Yposition Zposition Zrotation Xrotation Yrotation
          End Site
          {
            OFFSET 0 0 6.1981
          }
        }
      }
    }
  }
}
MOTION
Frames:	4
Frame Time:	0.0333333
5.72205e-005 65.662 3.42586 0 0 -0 0 8.7983 -4.7612 0 0 -0 0 8.0291 0.4195 0 0 -0 0 9.9351 -2.2114 0 0 -0 0 22.3885 -0.4656 0 0 -0 -0.0001 12.643 3.4389 0 0 -0 2.2603 21.606 7.4023 0 0 -12.5014 13.5163 -1.1332 -5.0146 88.1196 14.2451 10.6914 -0.0995 -28.05 -0.2431 -0.00160068 -0.00239207 0.000740045 0.0679 -23.3996 -0.1402 -8.4365e-005 7.00714e-005 -9.52055e-007 0.7932 -9.069 2.5189 9.93923e-017 -1.98785e-016 -1.59028e-015 -0.8272 -3.3923 0.5977 9.93923e-017 -5.96354e-016 -1.59028e-015 -0.5649 -2.3158 0.4082 -9.93923e-017 -5.96354e-016 -1.59028e-015 0.9159 -9.2044 0.2193 9.93923e-017 -1.98785e-016 -1.59028e-015 0.0117 -4.1944 -0.0248 -0.0128176 0.00232552 8.52707e-005 0.0071 -2.3249 -0.0142 9.93923e-017 5.96354e-016 -0 0.6113 -8.7231 -2.0637 9.93923e-017 -1.98785e-016 -1.59028e-015 -0.1927 -3.8059 -0.2383 -0.0160551 0.00299681 0.000857156 -0.1091 -2.1688 -0.1362 -2.48481e-016 0 3.18055e-015 -0.6151 -8.0947 -3.5641 9.93923e-017 -1.98785e-016 -1.59028e-015 -0.4882 -2.341 -0.6462 -0.0125865 0.0031206 0.00282719 -0.3575 -1.7167 -0.4742 0 1.98785e-016 -0 -1.42 -1.8761 1.4223 9.93923e-017 -1.98785e-016 -1.59028e-015 -1.1471 -3.4929 2.6334 9.93923e-017 -5.96354e-016 -1.59028e-015 -0.823 -2.3 1.6571 -9.93923e-017 -5.96354e-016 -1.59028e-015 -2.2603 21.606 7.4023 -0.865644 0.16582 7.03859 -13.5187 -1.1334 -5.0155 -88.0329 10.2057 -10.5567 0.0994 -28.0499 -0.2431 0.0015593 -0.00248883 -0.000788628 -0.0679 -23.3996 -0.1402 7.87605e-005 4.10553e-005 1.24965e-005 -0.7932 -9.0691 2.5189 -3.97569e-016 -7.95139e-016 3.18055e-015 0.8272 -3.3923 0.5977 -1.98785e-016 -3.97569e-016 3.18055e-015 0.565 -2.3158 0.4082 -1.98785e-016 0 3.18055e-015 -0.916 -9.2044 0.2193 -3.97569e-016 -7.95139e-016 3.18055e-015 -0.0117 -4.1944 -0.0248 0.0129473 0.00231697 -8.70038e-005 -0.0071 -2.3249 -0.0142 9.93923e-017 -7.95139e-016 1.59028e-015 -0.6113 -8.7231 -2.0637 -3.97569e-016 -7.95139e-016 3.18055e-015 0.1927 -3.8059 -0.2383 0.0163314 0.00303369 -0.000872333 0.1091 -2.1688 -0.1362 3.97569e-016 7.95139e-016 -3.18055e-015 0.6151 -8.0947 -3.564 -3.97569e-016 -7.95139e-016 3.18055e-015 0.4882 -2.341 -0.6462 0.0145763 0.00367772 -0.00326275 0.3574 -1.7166 -0.4742 9.93923e-017 -3.97569e-016 -0 1.4199 -1.8761 1.4221 -3.97569e-016 -7.95139e-016 3.18055e-015 1.1472 -3.4929 2.6336 -1.98785e-016 -3.97569e-016 3.18055e-015 0.8229 -2.3 1.6571 -1.98785e-016 0 3.18055e-015 -9.412 3.9771 -0.7758 3.42482 1.32465 -0.0626183 -0.7531 -40.938 0 0.000117508 0.717283 0.000978199 0 -40.1986 0 -3.4257 -2.04197 -0.0604716 8.88178e-016 -4.4182 9.239 6.47761e-025 0 -0 9.4119 3.9773 -0.7758 -3.42483 1.34017 0.0627307 0.7532 -40.9383 -2.22045e-016 -0.000193936 0.682302 -0.0013703 -8.88179e-016 -40.1986 0 3.42574 -2.02253 0.0595886 -8.88178e-016 -4.4182 9.239 -8.45714e-024 0 -7.40531e-025 
-3.69619 -4.46178 26.7796 1.44219 33.9898 179.559 0 8.7983 -4.7612 -0.0383153 10.7325 -0.410734 -8.88178e-016 8.0291 0.4195 0.0034224 21.4651 -0.836697 -4.44089e-016 9.9351 -2.2114 0.00342259 21.4651 -0.836696 -4.44089e-016 22.3885 -0.4656 5.27783 -5.644 0.307686 -0.0001 12.643 3.4389 9.43691 -14.7061 1.60435 2.2603 21.606 7.4023 -21.7262 -0.812206 -8.18887 13.5163 -1.1332 -5.0146 52.635 -5.17772 15.1534 -0.0995 -28.05 -0.2431 -46.9701 -1.26454 -18.9493 0.0679 -23.3996 -0.1402 -3.33775 -7.7818 60.4218 0.7932 -9.069 2.5189 9.16252e-006 -5.35074e-006 -2.6585e-007 -0.8272 -3.3923 0.5977 1.12423e-006 -2.15487e-007 -4.69441e-006 -0.5649 -2.3158 0.4082 -2.68016e-006 -2.43718e-006 4.30235e-006 0.9159 -9.2044 0.2193 9.16252e-006 -5.35074e-006 -2.6585e-007 0.0117 -4.1944 -0.0248 -0.0128294 0.00232042 8.2986e-005 0.0071 -2.3249 -0.0142 -1.29675e-006 -2.34371e-006 2.07615e-006 0.6113 -8.7231 -2.0637 9.16252e-006 -5.35074e-006 -2.6585e-007 -0.1927 -3.8059 -0.2383 -0.0160744 0.00300309 0.000856103 -0.1091 -2.1688 -0.1362 -1.12443e-006 -2.06636e-006 4.69434e-006 -0.6151 -8.0947 -3.5641 9.16252e-006 -5.35074e-006 -2.6585e-007 -0.4882 -2.341 -0.6462 -0.0125867 0.00311196 0.00281926 -0.3575 -1.7167 -0.4742 -8.34896e-015 -3.9847e-006 6.36111e-015 -1.42 -1.8761 1.4223 9.16252e-006 -5.35074e-006 -2.6585e-007 -1.1471 -3.4929 2.6334 1.12423e-006 -2.15487e-007 -4.69441e-006 -0.823 -2.3 1.6571 -2.68016e-006 -2.43718e-006 4.30235e-006 -2.2603 21.606 7.4023 28.3736 -4.9633 21.0606 -13.5187 -1.1334 -5.0155 -72.8145 7.45972 -14.018 0.0994 -28.0499 -0.2431 6.11674 -48.7825 -10.1756 -0.0679 -23.3996 -0.1402 15.4529 -10.6074 19.8443 -0.7932 -9.0691 2.5189 4.77083e-015 3.18055e-015 1.59028e-015 0.8272 -3.3923 0.5977 -1.59028e-015 0 1.27222e-014 0.565 -2.3158 0.4082 -3.18055e-015 3.18055e-015 -3.18055e-015 -0.916 -9.2044 0.2193 4.77083e-015 3.18055e-015 1.59028e-015 -0.0117 -4.1944 -0.0248 0.0129297 0.00230598 -8.6006e-005 -0.0071 -2.3249 -0.0142 -3.18055e-015 0 -1.66979e-014 -0.6113 -8.7231 -2.0637 4.77083e-015 3.18055e-015 1.59028e-015 0.1927 -3.8059 -0.2383 0.0163647 0.00304939 -0.000884734 0.1091 -2.1688 -0.1362 -3.18055e-015 6.36111e-015 2.38542e-015 0.6151 -8.0947 -3.564 4.77083e-015 3.18055e-015 1.59028e-015 0.4882 -2.341 -0.6462 0.0146001 0.00368497 -0.00326973 0.3574 -1.7166 -0.4742 6.36111e-015 3.18055e-015 -1.66979e-014 1.4199 -1.8761 1.4221 4.77083e-015 3.18055e-015 1.59028e-015 1.1472 -3.4929 2.6336 -1.59028e-015 0 1.27222e-014 0.8229 -2.3 1.6571 -3.18055e-015 3.18055e-015 -3.18055e-015 -9.412 3.9771 -0.7758 -113.633 -49.1465 -114.207 -0.7531 -40.938 3.55271e-015 161.528 53.6483 -168.285 0 -40.1986 -1.77636e-015 0.558706 1.59737 6.07456 0 -4.4182 9.239 -7.6987e-006 -8.67384e-006 1.24076e-005 9.4119 3.9773 -0.7758 108.305 -51.7337 125.242 0.7532 -40.9383 0 -146.676 54.8181 160.313 -8.88178e-016 -40.1986 -3.55271e-015 -9.63559 31.8658 -12.3279 0 -4.4182 9.239 -1.39973e-008 -1.88093e-009 4.24967e-007 
-3.69623 -4.46268 26.78 1.44185 33.9842 179.559 0 8.7983 -4.7612 -0.0383162 10.7325 -0.410734 0 8.0291 0.4195 0.00342278 21.4651 -0.836696 -8.88178e-016 9.9351 -2.2114 0.00342291 21.4651 -0.836697 1.33227e-015 22.3885 -0.4656 5.47019 -5.497 0.404972 -0.0001 12.643 3.4389 9.46494 -14.7658 1.66178 2.2603 21.606 7.4023 -21.7262 -0.812216 -8.18888 13.5163 -1.1332 -5.0146 52.6349 -5.1777 15.1534 -0.0995 -28.05 -0.2431 -46.97 -1.26457 -18.9493 0.0679 -23.3996 -0.1402 -3.33776 -7.78181 60.4218 0.7932 -9.06901 2.5189 1.02871e-005 -9.38479e-007 -4.95961e-006 -0.8272 -3.3923 0.5977 1.16666e-005 -2.63119e-006 1.01498e-005 -0.5649 -2.3158 0.4082 1.55595e-006 4.93581e-006 3.92174e-007 0.9159 -9.20441 0.2193 1.02871e-005 -9.38479e-007 -4.95961e-006 0.0117 -4.1944 -0.0248 -0.0127801 0.00231488 8.4005e-005 0.0071 -2.3249 -0.0142 1.81454e-006 1.2399e-006 2.86043e-006 0.6113 -8.72311 -2.0637 1.02871e-005 -9.38479e-007 -4.95961e-006 -0.1927 -3.8059 -0.2383 -0.0159965 0.00298855 0.00085144 -0.1091 -2.1688 -0.1362 1.81461e-006 2.6293e-006 2.86042e-006 -0.6151 -8.09471 -3.5641 1.02871e-005 -9.38479e-007 -4.95961e-006 -0.4882 -2.341 -0.6462 -0.0125866 0.00312526 0.00283832 -0.3575 -1.7167 -0.4742 1.5558e-006 3.21346e-006 3.92288e-007 -1.42 -1.8761 1.4223 1.02871e-005 -9.38479e-007 -4.95961e-006 -1.1471 -3.4929 2.6334 1.16666e-005 -2.63119e-006 1.01498e-005 -0.823 -2.3 1.6571 1.55595e-006 4.93581e-006 3.92174e-007 -2.2603 21.606 7.4023 28.3736 -4.96331 21.0606 -13.5187 -1.1334 -5.0155 -72.7993 7.80542 -14.0191 0.0994 -28.0499 -0.2431 6.11671 -48.7825 -10.1756 -0.0679 -23.3996 -0.1402 15.4529 -10.6075 19.8443 -0.7932 -9.06911 2.5189 1.59028e-015 3.18055e-015 -4.77083e-015 0.8272 -3.3923 0.5977 4.77083e-015 3.18055e-015 -4.77083e-015 0.565 -2.3158 0.4082 -1.59028e-015 -6.36111e-015 -2.38542e-015 -0.916 -9.20441 0.2193 1.59028e-015 3.18055e-015 -4.77083e-015 -0.0117 -4.1944 -0.0248 0.0129678 0.00231389 -8.28849e-005 -0.0071 -2.3249 -0.0142 -6.36111e-015 0 -3.97569e-015 -0.6113 -8.72311 -2.0637 1.59028e-015 3.18055e-015 -4.77083e-015 0.1927 -3.8059 -0.2383 0.0163673 0.00304327 -0.00087627 0.1091 -2.1688 -0.1362 -2.43973e-006 2.10203e-006 -3.76644e-006 0.6151 -8.0947 -3.564 1.59028e-015 3.18055e-015 -4.77083e-015 0.4882 -2.341 -0.6462 0.0145831 0.00367588 -0.00326272 0.3574 -1.7166 -0.4742 -4.77083e-015 3.18055e-015 -4.77083e-015 1.4199 -1.8761 1.4221 1.59028e-015 3.18055e-015 -4.77083e-015 1.1472 -3.4929 2.6336 4.77083e-015 3.18055e-015 -4.77083e-015 0.8229 -2.3 1.6571 -1.59028e-015 -6.36111e-015 -2.38542e-015 -9.412 3.9771 -0.7758 -113.633 -49.1466 -114.207 -0.7531 -40.938 -3.55271e-015 161.528 53.6484 -168.285 1.77636e-015 -40.1986 -1.77636e-015 0.558654 1.59745 6.07455 1.77636e-015 -4.4182 9.239 -6.36111e-015 -3.18055e-015 -3.18055e-015 9.4119 3.9773 -0.7758 108.305 -51.7339 125.242 0.7532 -40.9383 3.55271e-015 -146.675 54.8182 160.313 -2.66454e-015 -40.1986 0 -9.63553 31.8658 -12.3279 0 -4.4182 9.239 -3.55328e-015 -1.19271e-015 -0 
-3.69623 -4.46268 26.78 1.44185 33.9842 179.559 0 8.7983 -4.7612 -0.0383162 10.7325 -0.410734 0 8.0291 0.4195 0.00342249 21.4651 -0.836696 4.44089e-016 9.9351 -2.2114 0.00342292 21.4651 -0.836697 -8.88178e-016 22.3885 -0.4656 5.66234 -5.3496 0.501783 -0.0001 12.643 3.4389 9.49306 -14.8254 1.71926 2.2603 21.606 7.4023 -21.7262 -0.812209 -8.18888 13.5163 -1.1332 -5.0146 52.6349 -5.17773 15.1534 -0.0995 -28.05 -0.2431 -46.97 -1.26453 -18.9493 0.0679 -23.3996 -0.1402 -3.33775 -7.78179 60.4217 0.7932 -9.069 2.5189 7.15625e-015 -1.19271e-015 1.27222e-014 -0.8272 -3.3923 0.5977 1.81426e-006 4.58535e-006 2.86036e-006 -0.5649 -2.3158 0.4082 6.89746e-007 8.94966e-007 7.55469e-006 0.9159 -9.2044 0.2193 7.15625e-015 -1.19271e-015 1.27222e-014 0.0117 -4.1944 -0.0248 -0.0128152 0.00232164 8.54497e-005 0.0071 -2.3249 -0.0142 2.24567e-006 8.26541e-006 7.94695e-006 0.6113 -8.7231 -2.0637 7.15625e-015 -1.19271e-015 1.27222e-014 -0.1927 -3.8059 -0.2383 -0.0160666 0.00299866 0.000856954 -0.1091 -2.1688 -0.1362 6.89889e-007 3.07969e-006 7.5547e-006 -0.6151 -8.0947 -3.5641 7.15625e-015 -1.19271e-015 1.27222e-014 -0.4882 -2.341 -0.6462 -0.0125569 0.00311343 0.00282813 -0.3575 -1.7167 -0.4742 2.38542e-015 3.98506e-006 -6.36111e-015 -1.42 -1.8761 1.4223 7.15625e-015 -1.19271e-015 1.27222e-014 -1.1471 -3.4929 2.6334 1.81426e-006 4.58535e-006 2.86036e-006 -0.823 -2.3 1.6571 6.89746e-007 8.94966e-007 7.55469e-006 -2.2603 21.606 7.4023 28.3736 -4.96331 21.0606 -13.5187 -1.1334 -5.0155 -72.7841 8.15125 -14.0203 0.0994 -28.0499 -0.2431 6.11663 -48.7824 -10.1756 -0.0679 -23.3996 -0.1402 15.4529 -10.6074 19.8443 -0.7932 -9.0691 2.5189 -2.89191e-006 1.02209e-006 -1.62311e-006 0.8272 -3.3923 0.5977 -7.22977e-007 -1.23782e-006 -4.05777e-007 0.565 -2.3158 0.4082 6.36111e-015 0 2.38542e-015 -0.916 -9.2044 0.2193 -2.89191e-006 1.02209e-006 -1.62311e-006 -0.0117 -4.1944 -0.0248 0.0129991 0.00232209 -9.51588e-005 -0.0071 -2.3249 -0.0142 5.29669e-031 -6.36111e-015 4.77083e-015 -0.6113 -8.7231 -2.0637 -2.89191e-006 1.02209e-006 -1.62311e-006 0.1927 -3.8059 -0.2383 0.0163396 0.00304031 -0.000876823 0.1091 -2.1688 -0.1362 -6.62566e-007 1.4666e-006 -5.87198e-006 0.6151 -8.0947 -3.564 -2.89191e-006 1.02209e-006 -1.62311e-006 0.4882 -2.341 -0.6462 0.014643 0.00368719 -0.0032709 0.3574 -1.7166 -0.4742 -1.69335e-006 -2.59847e-006 -3.37412e-006 1.4199 -1.8761 1.4221 -2.89191e-006 1.02209e-006 -1.62311e-006 1.1472 -3.4929 2.6336 -7.22977e-007 -1.23782e-006 -4.05777e-007 0.8229 -2.3 1.6571 6.36111e-015 0 2.38542e-015 -9.412 3.9771 -0.7758 -113.633 -49.1466 -114.207 -0.7531 -40.938 3.55271e-015 161.528 53.6484 -168.285 0 -40.1986 0 0.558668 1.59746 6.07456 1.77636e-015 -4.4182 9.239 -9.09242e-006 -6.29222e-006 9.49391e-006 9.4119 3.9773 -0.7758 108.305 -51.7339 125.242 0.7532 -40.9383 3.55271e-015 -146.675 54.8183 160.313 3.10862e-015 -40.1986 0 -9.63555 31.8659 -12.3279 0 -4.4182 9.239 8.95622e-006 3.60784e-007 8.29824e-007 
